<?xml version="1.0" encoding="UTF-8" standalone="no"?>
<!-- Generator: Adobe Illustrator 19.2.1, SVG Export Plug-In . SVG Version: 6.00 Build 0)  -->

<svg
   xmlns:dc="http://purl.org/dc/elements/1.1/"
   xmlns:cc="http://creativecommons.org/ns#"
   xmlns:rdf="http://www.w3.org/1999/02/22-rdf-syntax-ns#"
   xmlns:svg="http://www.w3.org/2000/svg"
   xmlns="http://www.w3.org/2000/svg"
   xmlns:sodipodi="http://sodipodi.sourceforge.net/DTD/sodipodi-0.dtd"
   xmlns:inkscape="http://www.inkscape.org/namespaces/inkscape"
   version="1.1"
   id="layer"
   x="0px"
   y="0px"
   viewBox="0 0 652 652"
   style="enable-background:new 0 0 652 652;"
   xml:space="preserve"
   sodipodi:docname="evonik.svg"
   inkscape:version="0.92.3 (2405546, 2018-03-11)"><metadata
   id="metadata188"><rdf:RDF><cc:Work
       rdf:about=""><dc:format>image/svg+xml</dc:format><dc:type
         rdf:resource="http://purl.org/dc/dcmitype/StillImage" /></cc:Work></rdf:RDF></metadata><defs
   id="defs186" /><sodipodi:namedview
   pagecolor="#ffffff"
   bordercolor="#666666"
   borderopacity="1"
   objecttolerance="10"
   gridtolerance="10"
   guidetolerance="10"
   inkscape:pageopacity="0"
   inkscape:pageshadow="2"
   inkscape:window-width="1920"
   inkscape:window-height="1024"
   id="namedview184"
   showgrid="false"
   inkscape:zoom="1.3282209"
   inkscape:cx="293.24942"
   inkscape:cy="326"
   inkscape:window-x="0"
   inkscape:window-y="28"
   inkscape:window-maximized="1"
   inkscape:current-layer="layer"
   inkscape:snap-page="true" />
<style
   type="text/css"
   id="style119">
	.st0{fill:#991A81;}
</style>
<g
   id="Ebene_1_1_">
	<g
   id="g180">
		<g
   id="g147">
			<path
   class="st0"
   d="M259.4,371.2h0.6c3.7-0.3,5.1-0.3,6.8-0.3c3.7,0,5.9,0.6,7.6,1.7c2.3,1.4,3.7,3.9,3.7,7     c0,5.4-3.9,8.5-10.7,8.5c-0.6,0-1.1,0-2,0v9.3h-5.9V371.2z M265.3,383c0.3,0,0.8,0,1.1,0h0.3c3.9,0,5.4-1.1,5.4-3.7     s-1.4-3.7-4.5-3.7h-0.3c-0.6,0-1.4,0-2,0C265.3,375.7,265.3,383,265.3,383z"
   id="path121" />
			<path
   class="st0"
   d="M307,383.8c0,8.5-5.1,13.8-13,13.8s-12.7-5.1-12.7-13.2c0-8.7,5.1-14.1,13-14.1     C301.9,370.3,307,375.7,307,383.8z M287.5,384.1c0,5.4,2.3,8.7,6.5,8.7c3.9,0,6.5-3.1,6.5-8.7c0-5.4-2.3-8.7-6.5-8.7     C290.1,375.4,287.5,378.8,287.5,384.1z"
   id="path123" />
			<path
   class="st0"
   d="M315.7,370.9c1.4,6.5,1.4,7.6,3.1,14.6c0.8,3.1,1.1,4.5,1.1,5.6v2.8l0.3-2.8c0-0.8,0.6-3.4,1.1-5.6     c0.6-1.7,0.8-2.8,0.8-3.1l1.4-5.9l1.1-5.4h7l0.6,3.1l1.7,8.2l1.4,5.9c0.6,2,0.6,3.1,0.8,5.6c0.3-2.8,0.3-4.2,0.8-5.6l1.4-5.9     l2-8.7l0.6-2.8h5.9c-2.3,9.6-3.9,15.8-7.3,26.2H332l-1.7-7c-2-8.7-2.3-10.1-2.5-15.2c-0.6,5.9-0.6,7-2.8,15.2l-1.7,6.8h-7.6     l-1.1-3.9c-1.1-4.2-2.8-10.7-3.9-15.2l-1.7-7L315.7,370.9L315.7,370.9z"
   id="path125" />
			<path
   class="st0"
   d="M352.6,370.9H369v5.1h-10.4v5.1h10.1v5.1h-10.1v5.6h10.7v5.1h-16.6V370.9z"
   id="path127" />
			<path
   class="st0"
   d="M374.9,371.2h0.6c3.1-0.3,4.8-0.3,6.8-0.3c3.9,0,5.9,0.3,7.9,1.4c2.3,1.4,3.7,3.9,3.7,7c0,3.4-1.4,5.4-4.5,7     c1.7,2.5,5.6,7.9,7.9,10.4l0.3,0.3h-7.3c-1.4-2-5.1-7-6.5-9.3l-0.3-0.6c-1.4,0-1.4,0-2.5,0v9.9h-5.9L374.9,371.2L374.9,371.2z      M380.8,382.7c0.6,0,1.4,0,1.7,0c3.7,0,5.4-1.1,5.4-3.7c0-2.5-1.7-3.7-5.1-3.7c-0.6,0-0.8,0-1.4,0h-0.6     C380.8,375.4,380.8,382.7,380.8,382.7z"
   id="path129" />
			<path
   class="st0"
   d="M418.8,376.2h-8.2v-5.4h22v5.4h-8.2v21.1h-5.9L418.8,376.2L418.8,376.2z"
   id="path131" />
			<path
   class="st0"
   d="M460.8,383.8c0,8.5-5.1,13.8-13,13.8s-12.7-5.1-12.7-13.2c0-8.7,5.1-14.1,13-14.1     C455.7,370.3,460.8,375.7,460.8,383.8z M441.3,384.1c0,5.4,2.3,8.7,6.5,8.7c3.9,0,6.5-3.1,6.5-8.7c0-5.4-2.3-8.7-6.5-8.7     C443.9,375.4,441.3,378.8,441.3,384.1z"
   id="path133" />
			<path
   class="st0"
   d="M498.8,396c-2.8,1.1-5.1,1.7-8.2,1.7c-8.7,0-14.1-5.1-14.1-13.2c0-8.5,5.9-13.8,14.6-13.8     c2.8,0,4.8,0.6,7.6,1.7v5.9c-2.5-1.4-4.2-2-6.8-2c-5.6,0-9,3.1-9,8.5c0,5.1,3.4,8.2,8.7,8.2c2.5,0,4.5-0.6,7-2L498.8,396     L498.8,396z"
   id="path135" />
			<path
   class="st0"
   d="M504.4,371.2h0.6c3.1-0.3,4.8-0.3,6.8-0.3c3.9,0,5.9,0.3,7.9,1.4c2.3,1.4,3.7,3.9,3.7,7c0,3.4-1.4,5.4-4.5,7     c1.7,2.5,5.6,7.9,7.9,10.4l0.3,0.3h-7.3c-1.4-2-5.1-7-6.5-9.3l-0.3-0.6c-1.4,0-1.4,0-2.5,0v9.9h-5.9L504.4,371.2L504.4,371.2z      M510.1,382.7c0.6,0,1.4,0,1.7,0c3.7,0,5.4-1.1,5.4-3.7c0-2.5-1.7-3.7-5.1-3.7c-0.6,0-0.8,0-1.4,0h-0.6V382.7z"
   id="path137" />
			<path
   class="st0"
   d="M529.8,370.9h16.3v5.1h-10.4v5.1h10.1v5.1h-10.1v5.6h10.7v5.1h-16.6L529.8,370.9L529.8,370.9z"
   id="path139" />
			<path
   class="st0"
   d="M550.1,397.4c2.3-6.8,6.2-16.6,10.4-26.2h5.9c3.7,8.7,6.2,15.8,9.6,26.2h-6.2l-2.3-7h-9l-2.3,7H550.1z      M566.1,385.3l-1.4-4.5c-0.6-2-0.8-2.8-1.1-4.5c-0.3,1.1-0.3,1.1-0.3,1.7c-0.3,0.6-0.6,1.1-1.1,3.1l-1.4,4.2H566.1z"
   id="path141" />
			<path
   class="st0"
   d="M583,376.2h-8.2v-5.4h22v5.4h-8.2v21.1h-5.9L583,376.2L583,376.2z"
   id="path143" />
			<path
   class="st0"
   d="M601.9,370.9h16.3v5.1h-10.4v5.1H618v5.1h-10.1v5.6h10.7v5.1h-16.6V370.9L601.9,370.9z"
   id="path145" />
		</g>
		<g
   id="g178">
			<g
   id="g173">
				<g
   id="g151">
					<path
   class="st0"
   d="M617.7,347.2h-11c-1.1,0-2-0.8-2-2c-0.3-6.8-2.8-13-6.8-18c-0.6-0.8-1.4-1.7-2.3-2.5       c-4.2-4.8-10.1-7.6-16.9-7.6h-7v28.2c0,1.1-1.1,2.3-2.3,2.3H558c-1.1,0-2.3-1.1-2.3-2.3v-66.2c0-1.1,1.1-2.3,2.3-2.3h11.5       c1.1,0,2.3,0.8,2.3,2.3v22.3h7c12.4,0,22.5-9.9,22.8-22.5c0-1.1,0.8-2,2-2h11.8c1.1,0,2.3,0.8,2.3,2       c-0.3,12.4-6.2,23.4-15.2,30.1c2.5,2,4.8,3.9,6.5,6.5c6.8,8.2,11.3,18.3,11.5,29.6c0,1.1-0.8,2-2,2.3H617.7L617.7,347.2z"
   id="path149" />
				</g>
				<g
   id="g155">
					<path
   class="st0"
   d="M493.5,293.4c-5.9-2.3-12.7-3.7-19.4-3.7c-6.8,0-13.5,1.4-19.4,3.7v51.8c0,1.1-1.1,2.3-2.3,2.3h-11.5       c-1.1,0-2.3-1.1-2.3-2.3v-60.8c0-0.6,0.3-1.4,0.8-1.7c10.1-5.6,22-9,34.4-9s24.2,3.4,34.4,9c0.6,0.3,0.8,1.1,0.8,1.7V345       c0,1.1-1.1,2.3-2.3,2.3h-11.5c-1.1,0-2.3-1.1-2.3-2.3v-51.5H493.5z"
   id="path153" />
				</g>
				<g
   id="g159">
					<path
   class="st0"
   d="M524.7,345v-65.9c0-1.1,1.1-2.3,2.3-2.3h11.5c1.1,0,2.3,1.1,2.3,2.3v66.2c0,1.1-1.1,2.3-2.3,2.3H527       C525.6,347.2,524.7,346.4,524.7,345L524.7,345z"
   id="path157" />
				</g>
				<g
   id="g163">
					<path
   class="st0"
   d="M326.7,276.8h15.2c1.1,0,2,1.1,2,2.3c0,0.3,0,0.6,0,0.8l-25.4,65.9c-0.3,0.8-1.1,1.4-2,1.4h-19.2       c-0.8,0-1.7-0.6-2-1.4l-24.2-66.2c0-0.3,0-0.3,0-0.6c0-1.1,0.8-2,2-2.3h15.5c0.8,0,1.7,0.6,2,1.4l16.3,53.2l17.7-53.2       C325,277.4,325.9,276.8,326.7,276.8L326.7,276.8z"
   id="path161" />
				</g>
				<g
   id="g167">
					<path
   class="st0"
   d="M262.5,347.2h-55.8c-0.8,0-1.7-0.6-2-1.1c-5.9-10.1-9-21.7-9-34.1c0-12.4,3.4-23.9,9-34.1       c0.3-0.8,1.1-1.1,2-1.1h53c1.1,0,2,0.8,2,2v11.8c0,1.1-0.8,2-2,2h-44.5c-1.4,3.7-2.5,7.6-3.1,11.5h44.5c1.1,0,2,0.8,2,2v11.5       c0,1.1-0.8,2.3-2,2.3h-44.2c0.6,3.9,1.7,7.9,3.1,11.5h47.3c1.1,0,2,0.8,2,2V345C264.4,346.4,263.6,347.2,262.5,347.2       L262.5,347.2z"
   id="path165" />
				</g>
				<g
   id="g171">
					<path
   class="st0"
   d="M407.8,293.4c-5.9-2.3-12.7-3.7-19.4-3.7c-6.8,0-13.5,1.4-19.4,3.7v37.5c5.9,2.3,12.7,3.7,19.4,3.7       c6.8,0,13.2-1.4,19.4-3.7V293.4L407.8,293.4z M388.4,350.3c-12.4,0-23.9-3.1-34.1-9c-0.6-0.3-1.1-1.1-1.1-1.7v-55.2       c0-0.8,0.6-1.4,1.1-1.7c10.1-5.6,21.7-9,34.4-9c12.4,0,24.2,3.4,34.4,9c0.6,0.3,0.8,1.1,1.1,1.7v54.9c0,0.8-0.6,1.4-1.1,1.7       C412.3,346.9,400.8,350.3,388.4,350.3L388.4,350.3z"
   id="path169" />
				</g>
			</g>
			<g
   id="KNull_14_">
				<path
   class="st0"
   d="M86.7,260.5c-28.2,0-51,22.8-51,51s22.8,51,51,51c15.5,0,29.3-6.8,38.6-17.5c0,0-52.7,0-53.5,0      c-0.6,0-1.1-0.3-1.7-0.3c-12.1-6.2-20.3-18.6-20.3-33c0-14.4,8.2-27,20.3-33c0.6-0.3,1.1-0.3,1.7-0.3c4.8,0,26.8,0,29.9,0      c0.8,0,1.4,0.3,1.7,0.3c5.4,2.5,9.9,6.5,13.2,11.3c1.1,1.4,0,3.4-1.7,3.4c-1.4,0-40.3,0-40.3,0c-5.9,3.9-9.9,10.7-9.9,18.3      c0,7.6,3.9,14.4,9.9,18.3c0,0,71.3,0,72.7,0s2.5,1.4,2,2.8c-8.7,26.2-33.5,45.1-62.5,45.1c-36.6-0.3-66.2-29.9-66.2-66.5      c0-36.3,29.6-66.2,66.2-66.2s66.2,29.6,66.2,66.2c0,2,0,3.7-0.3,5.6c0,1.1-1.1,2-2,2c-11.3,0-70.1,0-71,0s-1.7-0.6-2-1.1      c-0.8-2-1.4-3.9-1.4-6.2c0-2.3,0.6-4.5,1.4-6.2c0.3-0.8,1.1-1.1,2-1.1c1.1,0,57.5,0,57.5,0C133.5,279.3,112.3,260.5,86.7,260.5z      "
   id="path175" />
			</g>
		</g>
	</g>
</g>
</svg>